<svg id="Layer_1" data-name="Layer 1" xmlns="http://www.w3.org/2000/svg" viewBox="0 0 2337.11 722.27">
  <title>veymay horizontal1</title>
  <g>
    <g>
      <path d="M331,1514.09V1412.52c7.21,4.77,13.73,9.16,20.34,13.42,12.91,8.32,25.56,17,38.6,25.17,8.46,5.28,16.21,11.72,24.82,16.71,9.06,5.25,17.4,11.53,26.36,16.91,5.19,3.11,10.09,6.74,15.34,9.83,1.63,1,.93,2.75.93,4.18,0,42.31-.05,84.62.09,126.93,0,8.61,3.19,16.46,7.28,24a48.88,48.88,0,0,0,12.35,15c5.84,4.67,12.36,8.49,18.61,12.65,13.52,9,27.07,17.92,40.56,27,1.87,1.25,4.4,1.42,6.12,3.53v-156c3.9,1.5,6.64,3.93,9.57,5.79,7.52,4.76,14.91,9.73,22.33,14.64,7.94,5.25,16,10.34,23.71,15.93,2.21,1.61,5.08,2.11,6.83,4.39.59.76,1.16.53,1.92,0,10.59-7.11,21.18-14.24,31.87-21.21,9.27-6,18.66-11.91,27.66-18.38a14.3,14.3,0,0,1,2.46-1v156.09c11-6.85,21-13.85,31.31-20.56,11.12-7.27,22.35-14.38,33.19-22.06,6.06-4.3,10-10.37,13.95-16.44,3.82-5.82,4.19-12.79,6.74-19,.45-1.09.19-2.5.19-3.76q0-63.65,0-127.3c0-2.6.62-4,3.12-5.5,9-5.57,17.69-11.78,26.56-17.64q9.39-6.19,19-12.1c13-8,25.44-16.76,38.28-25,12.22-7.82,24.1-16.18,36.43-23.86.69-.43,1-1.49,2.22-1.43v4.11q0,109.63.06,219.28a118,118,0,0,1-3.27,26.14,154.77,154.77,0,0,1-7.5,24.88A194.83,194.83,0,0,1,856.87,1713c-3.34,5.7-6.85,11.29-10.7,16.62a170.42,170.42,0,0,1-12.83,15.77,187,187,0,0,1-31.27,26.92c-9.23,6.36-18.76,12.23-28,18.48-8.46,5.69-17,11.21-25.57,16.81q-17.26,11.37-34.54,22.73c-14.7,9.65-29.59,19-44.07,29-14.28,9.81-29,19-43.26,28.77-5.27,3.62-10.66,7.06-16,10.61-3.81,2.55-7,2-10.78-.75-6.48-4.67-13.29-8.87-20-13.24-11.62-7.59-23.47-14.87-34.84-22.83-13.56-9.47-27.6-18.21-41.33-27.41-10.62-7.11-21.65-13.63-32.09-21-13.2-9.28-27-17.62-40.3-26.78-8.58-5.91-17.75-11.05-26.18-17.2A182.06,182.06,0,0,1,374,1740.58a192.12,192.12,0,0,1-16.67-22.91c-2.64-4.23-4.86-8.74-7.28-13.1a144.52,144.52,0,0,1-7.3-16.32,138.82,138.82,0,0,1-7.2-23.41c-1.12-5.28-1.84-10.68-3.25-15.78a36.55,36.55,0,0,1-1.1-10q-.13-60.43-.06-120.85C331.09,1516.87,331,1515.48,331,1514.09Z" transform="translate(-330.89 -1178)" style="fill: #fff"/>
      <path d="M352.42,1330c-5.75-9.48-11-19.21-14.54-29.76-1.33-4-2.58-8-3.87-12-1.71-9-3.19-17.84-3.05-27.09.39-26.22.12-52.45.16-78.67,0-1.44-.79-3.37.57-4.23,1.75-1.11,2.82.86,4.15,1.73,8.71,5.71,17.5,11.29,26.21,17q21.39,14,42.72,28.15c11.21,7.43,22.23,15.18,33.62,22.34,13.54,8.51,26.68,17.61,40.1,26.3q18.56,12,37,24.2c15.15,10,30.2,20.18,45.38,30.17,11.45,7.53,23.14,14.7,34.47,22.4,3,2.07,6.42,3.59,9.17,6.06.75.68,1.23.89,2.23.22,10.55-7.09,21.07-14.25,31.77-21.1,11.23-7.19,22.16-14.83,33.56-21.75,8.15-5,15.83-10.66,23.79-15.94q20.61-13.68,41.3-27.24c12.33-8.09,24.71-16.11,37-24.22,13.43-8.83,26.79-17.77,40.23-26.59,12.9-8.47,25.87-16.84,38.78-25.3,7.78-5.09,15.52-10.26,23.24-15.44.82-.55,1.45-1.65,2.58-1s.56,1.82.57,2.73c0,13.68,0,27.37,0,41,0,14.19-.11,28.38.05,42.56a89.08,89.08,0,0,1-3.06,25.46,155.08,155.08,0,0,1-8.79,24A131.11,131.11,0,0,1,846,1346.29a112.67,112.67,0,0,1-18,16.46c-12.49,8.86-25.37,17.14-38.34,25.27-8.19,5.14-16,10.89-24.09,16.19-11.19,7.33-22.7,14.2-33.67,21.85-8,5.58-16.14,11-24.24,16.36-8.75,5.84-17.48,11.76-26.43,17.31-8.38,5.2-16.3,11.13-24.68,16.33-11.58,7.18-22.56,15.28-34.25,22.33-5.16,3.1-10.14,6.68-15.12,10.16-.89.62-1.34,1.14-2.53.3-7.56-5.31-15.42-10.2-23.1-15.34-5.45-3.64-11-7.19-16.49-10.76-8.69-5.64-17.22-11.54-25.85-17.28-5.83-3.88-11.74-7.67-17.59-11.53-8.79-5.79-17.55-11.64-26.35-17.42-11.6-7.62-23.3-15.1-34.85-22.81-12.78-8.54-25.57-17.1-38.45-25.47-11.06-7.2-22.17-14.38-33.19-21.63-13.1-8.61-23.89-19.87-33.26-32.45C354.46,1332.79,353.45,1331.41,352.42,1330Z" transform="translate(-330.89 -1178)" style="fill: #fff"/>
    </g>
    <g>
      <path d="M2041.43,1452a5.63,5.63,0,0,0-.42-3.66c-4,4.68-7.87,9.2-11.71,13.73q-14.22,16.76-28.42,33.52l-28.61,33.78c-.51.6-1.06,1.16-1.56,1.77-1.27,1.53-1.93,1.95-3.62-.11-8-9.77-16.55-19.18-24.64-28.92-9.28-11.17-18.81-22.12-28.06-33.32-5.44-6.57-11.05-13-16.66-19.47-1.76.79-.82,2.35-.83,3.48q-.09,39.53-.06,79.05a11.92,11.92,0,0,1-.19,3.67c-1,5.61-2.21,11.1-6,15.74a25.12,25.12,0,0,1-19.38,9.65c-13.93.42-27.88.14-41.81.3-2.4,0-3-.7-3-3,.12-11,0-22,0-33q0-119.43-.07-238.88c0-3.2.66-4.47,4-4a43.72,43.72,0,0,0,6.06,0c8.25,0,8.15.09,13.39,6.32,12.31,14.63,24.75,29.16,37.11,43.75q21.78,25.72,43.55,51.48c9.48,11.18,19.06,22.27,28.6,33.4,2.76,3.23,5.58,6.41,8.25,9.72,1.17,1.46,1.94,1.34,3,0q6.29-7.53,12.66-15c4.77-5.58,9.59-11.11,14.34-16.69,5.38-6.33,10.67-12.73,16-19.06,4.75-5.59,9.6-11.1,14.34-16.69,6.68-7.85,13.3-15.75,20-23.63l17.24-20.34c8.32-9.81,16.67-19.6,24.92-29.47,2.13-2.55,4.34-4.16,8-3.9,4.47.31,9,0,13.47,0,1.14.86.57,2.08.57,3.11q0,136.28,0,272.56c0,1.09.35,2.25-.39,3.27-15.58,0-31.16,0-46.74-.05-8.76,0-18.74-8-21.64-16.21-2.17-6.13-2.22-12.31-2.31-18.59.55-1.18.28-2.43.28-3.65q0-33.48,0-67A11.38,11.38,0,0,1,2041.43,1452Z" transform="translate(-330.89 -1178)" style="fill: #fff"/>
      <path d="M1285,1282.22c.9,0,1.79.13,2.69.13h207.26c.9,0,1.79-.08,2.69-.12.22.22.57.3.56.75-.07,11,.28,21.91-.18,32.87-.54,6.14-1.49,12.16-5.09,17.41-4.51,6.56-11,9.54-18.63,11-3.93.73-7.77.37-11.64.37q-51.87.08-103.74,0c-1.34,0-2.68.14-4,.21-.63,1-.33,2.19-.33,3.29q0,19,0,38c0,3.55,0,3.56,3.71,3.56q52.5,0,105,0c1.18,0,2.47-.44,3.57.43,0,9.29.09,18.59-.13,27.88-.14,6.23-1,12.43-4.44,17.87-5.19,8.19-13,11.66-22.41,12.21a12,12,0,0,1-3.69.19h-77.9c-3.72,0-3.72,0-3.72,3.54q0,21.74,0,43.47c0,3.55,0,3.56,3.72,3.56q53.79,0,107.58,0a11.73,11.73,0,0,1,3.69.19c6.79.75,13.38,1.87,18.93,6.47,5,4.15,7.43,9.59,8.71,15.69.43,2.07.56,4.19.82,6.29.24,11.22.6,22.44-.17,33.66H1284.75c-.65-1.16-.33-2.42-.33-3.63q0-135.93,0-271.87C1284.44,1284.54,1283.82,1283.21,1285,1282.22Z" transform="translate(-330.89 -1178)" style="fill: #fff"/>
      <path d="M975,1282.37c18.2,0,35.73-.17,53.26.06,10.29.13,20,2.53,27.34,10.47a43.85,43.85,0,0,1,7.66,11.74q20.47,44.59,40.93,89.18,5.91,12.89,11.92,25.73c.36.77.43,2,1.41,2s1.13-1.19,1.47-1.93c3.91-8.72,7.71-17.5,11.68-26.19s8.26-17.49,12.27-26.28c4.3-9.4,8.37-18.91,12.67-28.31s8.71-18.51,13-27.8c2.81-6.1,5.61-12.1,10-17.44,5.52-6.79,12.77-9.93,20.89-10.6,19.94-1.65,39.94-.31,60.42-.78-3,6.2-5.65,12-8.44,17.77q-17.34,35.76-34.71,71.51-18.26,37.73-36.43,75.48-18.49,38.34-37,76.68-8.26,17.16-16.42,34.36c-1,2.17-2.13,3.49-4.94,3.2-4-.41-8.06-.24-12.09-.33-2.2-4.33-4.46-8.64-6.58-13-1.89-3.87-3.58-7.85-5.45-11.74q-8.74-18.21-17.55-36.38-9.35-19.41-18.68-38.82-9.13-18.95-18.31-37.87c-7-14.29-14-28.55-20.9-42.85-5.24-10.84-10.29-21.77-15.54-32.61-7.41-15.3-15.07-30.48-22.33-45.85C981.43,1295.45,978.4,1289.11,975,1282.37Z" transform="translate(-330.89 -1178)" style="fill: #fff"/>
      <path d="M2559.71,1534.87c-1.2,10.28-5.12,18.85-15.07,23.5a25.18,25.18,0,0,1-10.52,2.65c-14.89.11-29.78.12-44.68.16-.64-1.16-.32-2.42-.32-3.63q0-49.36,0-98.72c0-1.22.26-2.47-.27-3.65l-12.22-19.65q-8.88-14.34-17.75-28.69c-5-8.08-9.83-16.22-14.79-24.31q-14.52-23.68-29.09-47.34t-28.93-47c-1.07-1.74-2.49-3.31-3-5.44,1.09-.65,2.23-.33,3.3-.33,17.31,0,34.62-.13,51.92,0,9.33.08,18.49,1.25,26.24,7.27,5.31,4.12,9.24,9.37,12.58,15.13q17.51,30.21,35,60.41c3.41,5.87,7,11.66,10.24,17.62,1.58,2.88,2.6,1.48,3.59-.15,3-4.9,5.87-9.85,8.78-14.79,6.92-11.79,13.81-23.6,20.78-35.36,6.29-10.62,12.69-21.18,19-31.79,6.66-11.19,16.42-17.2,29.46-17.9,21.22-1.15,42.45-.07,64-.59-1.37,3.74-3.66,6.61-5.57,9.64Q2629.81,1344,2597,1396q-17.68,28.15-35.35,56.33a26.54,26.54,0,0,0-1.44,3c-.64,1.16-.33,2.42-.33,3.63q0,36.11,0,72.22A12.2,12.2,0,0,1,2559.71,1534.87Z" transform="translate(-330.89 -1178)" style="fill: #fff"/>
      <path d="M1622.06,1455.18l-12.22-19.65q-8.89-14.34-17.76-28.69c-5-8.09-9.83-16.23-14.79-24.32q-14.52-23.68-29.1-47.35t-28.93-47.05c-1.07-1.74-2.5-3.31-3-5.4.88-.63,1.8-.35,2.65-.35,17.76,0,35.52-.15,53.28,0,9.11.1,18,1.4,25.56,7.28a51,51,0,0,1,12.57,15.14q17.51,30.21,35,60.39c3.41,5.87,7,11.66,10.25,17.62,1.59,2.9,2.6,1.45,3.58-.17,3-4.9,5.87-9.86,8.78-14.8,6.93-11.79,13.82-23.59,20.78-35.36q9.35-15.81,18.8-31.54c6.87-11.46,16.86-17.54,30.36-18.18,21-1,42,0,63.34-.54-1.44,3.75-3.71,6.63-5.62,9.68q-38.91,62.16-77.93,124.27-11.88,18.94-23.71,37.93a9.55,9.55,0,0,0-.53,1.22c-.63,1.16-.32,2.42-.32,3.63q0,36.11,0,72.23a11.92,11.92,0,0,1-.2,3.67c-1.08,6.13-2.23,12.14-6.62,17.09a25.11,25.11,0,0,1-18.62,9c-15,.39-30,.2-45,.25-.64-1.16-.32-2.42-.32-3.63q0-49.36,0-98.72A8.67,8.67,0,0,0,1622.06,1455.18Z" transform="translate(-330.89 -1178)" style="fill: #fff"/>
      <path d="M1052,1669.31v44.75c0,6.06-.08,12.13,0,18.19,0,2.08-.35,3-2.7,2.87-5.17-.19-10.34-.11-15.51,0-1.74,0-2.6-.2-2.59-2.31q.09-49.86,0-99.74c0-2.06.82-2.39,2.6-2.36,5.5.09,11,.08,16.52,0a3.18,3.18,0,0,1,3.2,1.76c8.86,14.73,17.84,29.39,26.72,44.11,1.32,2.18,1.65,4.08,3.84.19,5.74-10.18,12.14-20,18.25-30,2.91-4.74,5.78-9.5,8.57-14.31a3.29,3.29,0,0,1,3.27-1.78c5.62,0,11.24.08,16.86,0,1.82,0,2.56.37,2.55,2.39q-.09,49.86,0,99.74c0,1.74-.45,2.33-2.25,2.29-5.17-.11-10.35-.26-15.51.05-2.8.17-2.91-.94-2.9-3.15q.11-29.32,0-58.63c0-1.22.79-3.16-.71-3.51-1.19-.28-1.69,1.7-2.35,2.78q-12.51,20.61-25,41.24c-1.49,2.44-3.84,2.28-5.32-.15-6.07-10-12.26-19.92-18.33-29.92-2.94-4.84-5.72-9.79-8.57-14.68Z" transform="translate(-330.89 -1178)" style="fill: #fff"/>
      <path d="M1850,1735.07c-4.61,0-9.21,0-13.82,0a3.26,3.26,0,0,1-3.15-1.7c-7.06-10.19-14.32-20.24-21.45-30.39s-14.11-20.26-21.7-31.17v3.56c0,18.85,0,37.71.06,56.57,0,2.43-.45,3.31-3.08,3.18-5-.23-10.11-.13-15.16,0-1.75,0-2.58-.24-2.57-2.33q.09-49.83,0-99.67c0-2,.68-2.65,2.53-2.39a1.93,1.93,0,0,0,.34,0c4.26,0,9.21-1.23,12.6.52s5.07,6.5,7.5,10q17.55,24.94,35.1,49.9a17.13,17.13,0,0,0,1.35,1.49c1.65-.7.8-2.15.8-3.19.07-18.4,0-36.8.08-55.2,0-1.17-.52-2.46.46-3.53l19.95,0c.74.75.43,1.7.44,2.56q0,49.79,0,99.58A4.32,4.32,0,0,1,1850,1735.07Z" transform="translate(-330.89 -1178)" style="fill: #fff"/>
      <path d="M1626.59,1671.71c.64-8.29.13-16.59.26-24.88.08-4.49.11-9,0-13.47-.06-2,.48-2.76,2.62-2.7,4.94.16,9.9.19,14.83,0,2.61-.11,3.21.86,3.2,3.29-.08,19.2,0,38.41,0,57.61,0,13.47-.07,27,.06,40.42,0,2.54-.62,3.26-3.16,3.15-4.71-.22-9.45-.21-14.16,0-2.57.11-3.41-.52-3.38-3.26.17-12.35,0-24.71.13-37.06,0-2.37-.6-3-3-3q-16.51.2-33,0c-2.24,0-2.77.63-2.75,2.79.1,12.46,0,24.93.12,37.39,0,2.62-.74,3.18-3.19,3.08-5-.19-10.11-.14-15.17,0-1.89.05-2.46-.51-2.46-2.44q.08-49.68,0-99.37c0-2.12.66-2.67,2.69-2.62,5.06.13,10.12.17,15.17,0,2.42-.09,3,.71,3,3-.11,11.91,0,23.81,0,35.71,0,.78.14,1.55.21,2.33,1,.65,2.18.33,3.28.33q15.79,0,31.59,0C1624.4,1672,1625.55,1672.36,1626.59,1671.71Z" transform="translate(-330.89 -1178)" style="fill: #fff"/>
      <path d="M2441.6,1734.86l.09-98c0-6.1,0-6.1,6.2-6.1,18.21,0,36.42.06,54.63-.06,2.51,0,3.28.58,3.16,3.13-.22,4.71-.17,9.44,0,14.15.07,2.12-.61,2.62-2.65,2.61-12.36-.09-24.73.08-37.09-.13-3.11-.06-3.71.9-3.59,3.74.22,5.38.13,10.78,0,16.17,0,1.71.4,2.32,2.23,2.3,12.24-.12,24.49-.13,36.74-.18,1.17,1.85.45,3.89.52,5.83.13,3.58-.16,7.19.1,10.76.21,2.81-.9,3.31-3.43,3.28-10.88-.12-21.77-.06-32.66,0-1.09,0-2.25-.31-3.29.34q-.43,11.12,0,22.23c1.16.67,2.43.33,3.64.33,12.47,0,25,.08,37.43,0,2.35,0,3.11.62,3,3-.17,4.94-.09,9.89,0,14.83,0,1.6-.26,2.46-2.17,2.45-20.58-.05-41.15,0-61.72,0A1.28,1.28,0,0,1,2441.6,1734.86Z" transform="translate(-330.89 -1178)" style="fill: #fff"/>
      <path d="M1929.71,1692.61q-.43,11.12,0,22.23c1.15.67,2.41.33,3.62.33,12.44,0,24.88.1,37.32,0,2.58,0,3.31.72,3.14,3.22-.37,5.55.43,11.14-.43,16.7-20.56,0-41.11,0-61.67.07-2.42,0-2.93-.71-2.92-3q.11-49.15,0-98.31c0-2.58.73-3.15,3.21-3.13q28.82.15,57.62,0c2.84,0,3.28,1,3.21,3.42-.16,5.38,0,10.77,0,16.16-4.58.56-9.17.2-13.76.23-8.63.07-17.27,0-25.9,0-1.09,0-2.25-.33-3.28.34-.66,6.71-.08,13.44-.31,20.16,0,1.46.71,1.61,1.87,1.6l37.08-.15c1,.76.53,1.87.54,2.8.06,4.59-.16,9.2.09,13.79.16,2.81-.91,3.31-3.43,3.28-10.89-.12-21.78-.06-32.66,0C1931.9,1692.28,1930.75,1692,1929.71,1692.61Z" transform="translate(-330.89 -1178)" style="fill: #fff"/>
      <path d="M2192.1,1692.61q-.45,11.12,0,22.23c1.15.67,2.41.33,3.62.33,12.44,0,24.88.1,37.32,0,2.57,0,3.3.71,3.14,3.21-.36,5.56.4,11.15-.41,16.71l0,0c-.81.59-1.74.35-2.61.35q-29.62,0-59.24,0c-.94,0-2,.46-2.83-.51l.09-99.36c0-4.79,0-4.79,4.81-4.79,18.54,0,37.08.06,55.62-.06,2.69,0,3.71.46,3.57,3.4-.26,5.38-.07,10.78-.06,16.17-4.58.56-9.17.2-13.76.23-8.63.07-17.27,0-25.9,0-1.09,0-2.25-.33-3.28.34-.66,6.71-.08,13.44-.31,20.16-.05,1.46.71,1.61,1.87,1.6l37.08-.15c1.05.76.52,1.87.54,2.8.06,4.59-.16,9.2.09,13.79.16,2.81-.91,3.31-3.43,3.28-10.89-.12-21.78-.06-32.66,0C2194.29,1692.28,2193.14,1692,2192.1,1692.61Z" transform="translate(-330.89 -1178)" style="fill: #fff"/>
      <path d="M1431.72,1735.05c-20.56,0-41.12,0-61.67.07-2.43,0-2.93-.72-2.93-3q.12-49.15,0-98.31c0-2.58.74-3.15,3.22-3.13q28.8.15,57.62,0c2.4,0,3.33.41,3.22,3.06-.23,5.49-.06,11-.06,16.5-4.8.58-9.61.19-14.42.23-8.41.08-16.82,0-25.23,0-1.1,0-2.25-.33-3.28.34-.67,6.71-.09,13.44-.31,20.16,0,1.46.71,1.61,1.87,1.6l37.08-.15c1,.76.52,1.87.54,2.8.06,4.6-.16,9.2.09,13.79.16,2.81-.91,3.31-3.43,3.28-10.89-.12-21.78-.06-32.67,0-1.09,0-2.25-.31-3.29.34q-.43,11.12,0,22.23c1.16.67,2.42.33,3.62.33,12.45,0,24.89.1,37.33,0,2.57,0,3.3.72,3.14,3.22C1431.78,1723.9,1432.58,1729.49,1431.72,1735.05Z" transform="translate(-330.89 -1178)" style="fill: #fff"/>
      <path d="M2299,1737.15c-22.84-.27-39-11.2-48.79-31.46-3.87-8-4.5-16.88-4.2-25.86a51.78,51.78,0,0,1,15.84-36.42c8.64-8.55,19.23-12.87,31.32-14.25a56.14,56.14,0,0,1,29.35,4.26,49.43,49.43,0,0,1,21.71,18.28c.85,1.26.73,1.75-.6,2.49-5,2.79-10,5.69-15,8.63-1,.6-1.45.9-2.28-.4a28.29,28.29,0,0,0-18.89-12.8c-18.24-3.68-37.71,4.63-40.64,28.26-1.34,10.89.93,20.95,8.66,29.35,11.68,12.69,37.95,14.47,50.35-3,.86-1.2,1.68-1.87,3.33-.87,4.64,2.83,9.37,5.54,14.14,8.15,1.8,1,1.54,1.84.57,3.24a51.5,51.5,0,0,1-24.72,19.07A53.94,53.94,0,0,1,2299,1737.15Z" transform="translate(-330.89 -1178)" style="fill: #fff"/>
      <path d="M2066.8,1630.71c-5.75,9.67-11.16,18.81-16.62,27.92-4.16,6.95-8.37,13.86-12.56,20.79a3.27,3.27,0,0,0,0,3.92c9.77,16.12,19.41,32.33,29.07,48.51.56.94,1,1.92,1.73,3.21-7.63,0-14.89,0-22.15,0-1.34,0-1.85-.59-2.47-1.63-5.88-10-11.89-19.87-17.71-29.88-1.18-2-1.59-1.9-2.68,0-5.86,9.93-11.83,19.8-17.69,29.73a3.12,3.12,0,0,1-3.1,1.83c-7.08-.09-14.16,0-21.54,0,6-10,11.83-19.82,17.71-29.62q6.56-11,13.18-21.89c1-1.65.51-3-.41-4.5q-13.33-22.2-26.54-44.48c-.7-1.17-2-2-2.1-3.86,7.46,0,14.73,0,22,0,1.46,0,1.84.94,2.41,1.91q7.62,12.87,15.27,25.72c2,3.42,2.37,3.43,4.29.15q7.63-13,15.31-26c.59-1,1.16-1.86,2.73-1.83C2052,1630.79,2059.09,1630.71,2066.8,1630.71Z" transform="translate(-330.89 -1178)" style="fill: #fff"/>
      <path d="M2352,1630.65c24.27,0,48.54.1,72.81,0,3,0,4.11.67,3.89,3.83a99.62,99.62,0,0,0,0,12.46c.15,2.73-.59,3.71-3.49,3.63-7.19-.2-14.39.06-21.57-.13-2.67-.07-3.31.71-3.3,3.32.1,25.93,0,51.86.15,77.8,0,3.07-.84,3.7-3.7,3.58-5.6-.23-11.21-.07-17.08-.07v-3.84q0-38.4,0-76.79c0-1.2.38-2.48-.39-3.61-5.21-.8-10.46-.17-15.69-.33-3.24-.1-6.49,0-9.73,0-.94,0-2.33.32-2.29-1.19C2351.72,1643.06,2350.91,1636.83,2352,1630.65Z" transform="translate(-330.89 -1178)" style="fill: #fff"/>
      <path d="M1477.81,1630.65c24.32,0,48.63.09,73,0,2.84,0,3.93.48,3.76,3.61-.29,5.24,0,10.52,0,15.78-1.23.86-2.61.37-3.91.41-8,.25-16.11-.42-24.15.38-.09,1.22-.26,2.43-.26,3.65,0,25.8-.06,51.6.06,77.41,0,2.73-.79,3.34-3.34,3.23-4.71-.2-9.44-.21-14.15,0-2.63.13-3.35-.62-3.34-3.29.11-25.8.07-51.61,0-77.41,0-1.2.38-2.47-.39-3.6-5.22-.8-10.46-.17-15.69-.33-3.25-.1-6.49,0-9.74,0-.94,0-2.32.32-2.28-1.19C1477.54,1643.06,1476.73,1636.83,1477.81,1630.65Z" transform="translate(-330.89 -1178)" style="fill: #fff"/>
      <path d="M2435.61,1557.6,2392,1473.71q-13.39-25.8-26.78-51.6-23.25-44.76-46.51-89.51-12.32-23.73-24.52-47.49c-1.08-2.11-2.35-2.93-4.71-2.81-3.93.19-7.87.11-11.8,0a3.12,3.12,0,0,0-3.35,2c-4.75,9.23-9.81,18.31-14.52,27.57-5.75,11.34-11.74,22.55-17.56,33.85q-9.26,18-18.62,35.9c-7.49,14.3-14.7,28.74-22.14,43.06-5.05,9.71-10.55,19.19-15.35,29-6.65,13.62-13.92,26.9-20.84,40.37-5.15,10-10.45,20-15.65,30s-10.68,20.12-15.59,30.4c-1.06,2.21-3,4-3.33,6.68,19.19,0,38.18.31,57.16-.11,12-.27,21.26-6,27.73-16.21,3.69-5.84,6.32-12.2,9.43-18.33.82-1.64,1.72-2.51,3.8-2.51q54.8.12,109.59,0a3.69,3.69,0,0,1,3.84,2.41,157.75,157.75,0,0,0,10.65,19.8c5.93,8.91,14.54,14.19,24.86,14.78,15.23.86,30.55.25,45.83.27h13.72C2436.67,1559.76,2436.16,1558.67,2435.61,1557.6Zm-182.39-90.2,30.78-65.3c10.34,21.94,20.46,43.41,30.77,65.3Z" transform="translate(-330.89 -1178)" style="fill: #fff"/>
      <path d="M1203.65,1628.69c-13.83,0-26.31,4-36.73,13.47-13.77,12.53-19.12,28.43-17.66,46.52,1.88,23.31,21.71,48.91,52.83,48.4,30.67,1.17,55.54-23.52,55.71-53.91C1258,1653.3,1233.68,1628.58,1203.65,1628.69Zm-.53,88.27c-19.52-.13-33.33-14.34-33.25-34.23s14.24-34.06,33.93-34c19.27.08,33.37,14.62,33.29,34.32C1237,1703,1222.88,1717.09,1203.12,1717Z" transform="translate(-330.89 -1178)" style="fill: #fff"/>
      <path d="M2612.36,1670.73c-5.46-25-24.86-40-50.48-40-11.36,0-22.71,0-34.06,0-5.86,0-5.86,0-5.86,5.77l-.09,98.38c.25.2.39.51.81.51,12.07-.07,24.14.26,36.21-.18,3-.08,6.08,0,9.09-.26a47,47,0,0,0,18.86-5.43C2609,1717.08,2617.41,1693.93,2612.36,1670.73Zm-19.92,23.64c-3.89,12.78-14.39,20.69-28.09,21-6.39.15-12.8-.06-19.19.11-2.23.06-2.54-.8-2.53-2.72.09-10,0-20,0-30s.07-19.74-.05-29.61c0-2.23.62-2.83,2.81-2.78,5.72.15,11.45,0,17.17.06,17.38.12,29,10.35,31.18,27.56A39,39,0,0,1,2592.44,1694.37Z" transform="translate(-330.89 -1178)" style="fill: #fff"/>
      <path d="M1351.88,1732.05c-6.73-11.47-13.38-23-20.28-34.34-1.25-2.07-.49-2.34,1.08-3.16a33.26,33.26,0,0,0,16.34-39.67c-4.34-13.62-16.79-24-33.6-24.15-12.58-.08-25.17.1-37.75-.1-3.08-.05-3.66.85-3.65,3.74.11,32.55.07,65.1.07,97.65v3c6.15,0,12.08-.1,18,.06,2.25.06,2.79-.64,2.76-2.81-.11-10,.06-20-.12-30,0-2.63.76-3.2,3.19-3,3.47.21,7,.09,10.44,0a2.79,2.79,0,0,1,3,1.57c1.64,3.09,3.56,6,5.3,9.06,4.38,7.68,8.7,15.4,13.11,23.06a3.7,3.7,0,0,0,3.68,2.12c6.51-.2,13-.08,20-.08C1352.78,1733.8,1352.38,1732.9,1351.88,1732.05Zm-34.73-51.42c-6.82.48-13.7.17-20.55.28-1.59,0-1.82-.73-1.82-2.06,0-9,.06-18,0-26.94,0-1.57.62-1.86,2-1.83,3.48.07,7,0,10.45,0,2.81,0,5.62,0,8.43,0a14.49,14.49,0,0,1,14.33,14C1330.38,1673,1325.13,1680.07,1317.15,1680.63Z" transform="translate(-330.89 -1178)" style="fill: #fff"/>
      <path d="M1752.09,1719.56q-15.18-43.26-30.39-86.51c-.55-1.55-1.23-2.47-3.27-2.41-7,.19-13.93.11-20.9,0-1.74,0-2.67.42-3.29,2.27-4.39,12.9-8.94,25.74-13.42,38.61-4.25,12.24-8.44,24.51-12.73,36.74-3.11,8.88-6.33,17.71-9.56,26.75,7.07,0,13.7-.09,20.33.06,1.86.05,2.4-.74,2.91-2.25,1.8-5.36,3.24-10.86,5.54-16a2.25,2.25,0,0,1,1-.3c12.87,0,25.75,0,38.62,0,.91,0,1.82,0,2.26,1,1.66,5.28,3.29,10.58,5,15.85.4,1.25,1.31,1.75,2.79,1.73,6.73-.11,13.47,0,20.49,0C1755.6,1729.76,1753.88,1724.65,1752.09,1719.56Zm-31.54-22.41q-12.32-.11-24.61,0c-2.68,0-1.53-1.43-1.14-2.59,4.36-13,8.74-26.1,13.39-40l10.25,30.4c1.14,3.39,2.23,6.8,3.42,10.18C1722.34,1696.53,1722.29,1697.17,1720.55,1697.15Z" transform="translate(-330.89 -1178)" style="fill: #fff"/>
      <path d="M2155.37,1658.47c-3.25-15.75-16.17-27.28-34.57-27.69-12.24-.28-24.5,0-36.74-.12-2.16,0-2.63.7-2.61,2.71.1,7.85,0,15.71,0,23.57v78.12c6.16,0,12.1-.11,18,.06,2.28.06,2.76-.69,2.74-2.83-.12-8.64-.05-17.28-.05-25.93,0-5.67,0-5.55,5.83-5.7,6.91-.18,13.9.92,20.73-.72C2147.71,1695.41,2159.4,1678,2155.37,1658.47Zm-32.29,22.79c-6.36.88-12.79.18-19.19.37-1.38,0-1.7-.59-1.7-1.82,0-9.31,0-18.63,0-27.94,0-1.61.7-1.82,2-1.79,3,.06,6.07,0,9.1,0,2.58,0,5.17,0,7.75,0,8.14.18,14,6.05,14.59,14.64C2136.24,1673,2130.9,1680.19,2123.08,1681.26Z" transform="translate(-330.89 -1178)" style="fill: #fff"/>
    </g>
  </g>
</svg>
